<?xml version="1.0" encoding="utf-8"?>
<!-- Svg Vector Icons : http://www.onlinewebfonts.com/icon -->
<!DOCTYPE svg PUBLIC "-//W3C//DTD SVG 1.1//EN" "http://www.w3.org/Graphics/SVG/1.1/DTD/svg11.dtd">
<svg version="1.1" xmlns="http://www.w3.org/2000/svg" xmlns:xlink="http://www.w3.org/1999/xlink" x="0px" y="0px" viewBox="0 0 1000 1000" enable-background="new 0 0 1000 1000" xml:space="preserve">
<metadata> Svg Vector Icons : http://www.onlinewebfonts.com/icon </metadata>
<g><path d="M859.1,10H140.9C84.3,10,38.2,55.9,38.2,112.2v571.6c0,56.3,46.1,102.2,102.6,102.2h29.5l48,204l236.2-204h404.6c56.6,0,102.6-45.9,102.6-102.2V112.2C961.8,55.9,915.7,10,859.1,10z M900.2,683.8c0,22.4-18.4,40.6-41.1,40.6H431.7L255,877l-35.8-152.6h-78.3c-22.7,0-41.1-18.2-41.1-40.6V112.2c0-22.4,18.4-40.7,41.1-40.7h718.3c22.7,0,41.1,18.2,41.1,40.7V683.8z"/></g>
</svg>